<svg width="346" height="335" viewBox="0 0 346 335" fill="none" xmlns="http://www.w3.org/2000/svg">
<path d="M96.3025 157.383C96.3025 191.398 52.8955 221.998 36.1723 252.441C10.0735 299.951 58.5349 334.973 126.886 334.973C231.024 334.973 353.164 200.493 324.031 94.0232C312.207 50.819 269.525 10.0562 210.011 3.09079C86.42 -11.3626 39.7447 47.4182 39.7447 90.794C39.7447 135.8 96.3025 128.421 96.3025 157.383Z" fill="white"/>
<path opacity="0.7" d="M96.3025 157.383C96.3025 191.398 52.8955 221.998 36.1723 252.441C10.0735 299.951 58.5349 334.973 126.886 334.973C231.024 334.973 353.164 200.493 324.031 94.0232C312.207 50.819 269.525 10.0562 210.011 3.09079C86.42 -11.3626 39.7447 47.4182 39.7447 90.794C39.7447 135.8 96.3025 128.421 96.3025 157.383Z" fill="white"/>
<path d="M319.897 102.533H250.228V260.577H319.897V102.533Z" stroke="#263238" stroke-width="0.75" stroke-linecap="round" stroke-linejoin="round"/>
<path d="M313.782 108.648H256.343V254.461H313.782V108.648Z" stroke="#263238" stroke-width="0.75" stroke-linecap="round" stroke-linejoin="round"/>
<path d="M262.872 173.029L261.304 175.751" stroke="#263238" stroke-width="0.75" stroke-linecap="round" stroke-linejoin="round"/>
<path d="M279.361 144.481L264.681 169.909" stroke="#263238" stroke-width="0.75" stroke-linecap="round" stroke-linejoin="round"/>
<path d="M292.831 121.144L281.708 140.41" stroke="#263238" stroke-width="0.75" stroke-linecap="round" stroke-linejoin="round"/>
<path d="M295.187 117.072L294.001 119.116" stroke="#263238" stroke-width="0.75" stroke-linecap="round" stroke-linejoin="round"/>
<path d="M267.544 242.332L266.21 244.641" stroke="#263238" stroke-width="0.75" stroke-linecap="round" stroke-linejoin="round"/>
<path d="M270.633 236.982L269.221 239.439" stroke="#263238" stroke-width="0.75" stroke-linecap="round" stroke-linejoin="round"/>
<path d="M289.47 204.354L273.659 231.748" stroke="#263238" stroke-width="0.75" stroke-linecap="round" stroke-linejoin="round"/>
<path d="M303.47 180.104L291.092 201.554" stroke="#263238" stroke-width="0.75" stroke-linecap="round" stroke-linejoin="round"/>
<path d="M306.536 174.8L305.312 176.922" stroke="#263238" stroke-width="0.75" stroke-linecap="round" stroke-linejoin="round"/>
<path d="M285.063 224.884L273.659 244.641" stroke="#263238" stroke-width="0.75" stroke-linecap="round" stroke-linejoin="round"/>
<path d="M299.649 199.62L286.724 222.006" stroke="#263238" stroke-width="0.75" stroke-linecap="round" stroke-linejoin="round"/>
<path d="M302.683 194.37L301.154 197.014" stroke="#263238" stroke-width="0.75" stroke-linecap="round" stroke-linejoin="round"/>
<path d="M261.304 193.481L259.572 196.484" stroke="#263238" stroke-width="0.75" stroke-linecap="round" stroke-linejoin="round"/>
<path d="M276.459 167.234L262.692 191.079" stroke="#263238" stroke-width="0.75" stroke-linecap="round" stroke-linejoin="round"/>
<path d="M295.374 134.474L278.082 164.418" stroke="#263238" stroke-width="0.75" stroke-linecap="round" stroke-linejoin="round"/>
<path d="M306.739 114.787L296.708 132.165" stroke="#263238" stroke-width="0.75" stroke-linecap="round" stroke-linejoin="round"/>
<path d="M95.7721 102.533H26.1025V260.577H95.7721V102.533Z" stroke="#263238" stroke-width="0.75" stroke-linecap="round" stroke-linejoin="round"/>
<path d="M89.657 108.648H32.2178V254.461H89.657V108.648Z" stroke="#263238" stroke-width="0.75" stroke-linecap="round" stroke-linejoin="round"/>
<path d="M38.7465 173.029L37.1787 175.751" stroke="#263238" stroke-width="0.75" stroke-linecap="round" stroke-linejoin="round"/>
<path d="M55.2279 144.481L40.5483 169.909" stroke="#263238" stroke-width="0.75" stroke-linecap="round" stroke-linejoin="round"/>
<path d="M68.7063 121.144L57.5835 140.41" stroke="#263238" stroke-width="0.75" stroke-linecap="round" stroke-linejoin="round"/>
<path d="M71.0538 117.072L69.876 119.116" stroke="#263238" stroke-width="0.75" stroke-linecap="round" stroke-linejoin="round"/>
<path d="M43.4188 242.332L42.085 244.641" stroke="#263238" stroke-width="0.75" stroke-linecap="round" stroke-linejoin="round"/>
<path d="M46.5075 236.982L45.0879 239.439" stroke="#263238" stroke-width="0.75" stroke-linecap="round" stroke-linejoin="round"/>
<path d="M65.3443 204.354L49.5259 231.748" stroke="#263238" stroke-width="0.75" stroke-linecap="round" stroke-linejoin="round"/>
<path d="M79.3454 180.104L66.959 201.554" stroke="#263238" stroke-width="0.75" stroke-linecap="round" stroke-linejoin="round"/>
<path d="M82.4106 174.8L81.1782 176.922" stroke="#263238" stroke-width="0.75" stroke-linecap="round" stroke-linejoin="round"/>
<path d="M60.9373 224.884L49.5259 244.641" stroke="#263238" stroke-width="0.75" stroke-linecap="round" stroke-linejoin="round"/>
<path d="M75.5232 199.62L62.5986 222.006" stroke="#263238" stroke-width="0.75" stroke-linecap="round" stroke-linejoin="round"/>
<path d="M78.5498 194.37L77.0288 197.014" stroke="#263238" stroke-width="0.75" stroke-linecap="round" stroke-linejoin="round"/>
<path d="M37.1784 193.481L35.439 196.484" stroke="#263238" stroke-width="0.75" stroke-linecap="round" stroke-linejoin="round"/>
<path d="M52.3261 167.234L38.5591 191.079" stroke="#263238" stroke-width="0.75" stroke-linecap="round" stroke-linejoin="round"/>
<path d="M71.2413 134.474L53.9565 164.418" stroke="#263238" stroke-width="0.75" stroke-linecap="round" stroke-linejoin="round"/>
<path d="M82.6055 114.787L72.5747 132.165" stroke="#263238" stroke-width="0.75" stroke-linecap="round" stroke-linejoin="round"/>
<path d="M1.00977 326.455H344.99" stroke="#263238" stroke-linecap="round" stroke-linejoin="round"/>
<path d="M120.498 264.664H114.531V284.952H120.498V264.664Z" fill="white"/>
<path opacity="0.2" d="M120.498 264.664H114.531V284.952H120.498V264.664Z" fill="black"/>
<path d="M126.473 266.895H120.506V284.952H126.473V266.895Z" fill="white"/>
<path d="M133.922 266.895H129.71V284.952H133.922V266.895Z" fill="white"/>
<path opacity="0.9" d="M133.922 266.895H129.71V284.952H133.922V266.895Z" fill="white"/>
<path d="M129.718 264.991H125.896V284.959H129.718V264.991Z" fill="white"/>
<path opacity="0.1" d="M129.718 264.991H125.896V284.959H129.718V264.991Z" fill="black"/>
<path d="M139.897 264.664H133.93V284.952H139.897V264.664Z" fill="white"/>
<path d="M145.863 266.895H139.896V284.952H145.863V266.895Z" fill="white"/>
<path opacity="0.2" d="M145.863 266.895H139.896V284.952H145.863V266.895Z" fill="#263238"/>
<path d="M153.32 266.895H149.108V284.952H153.32V266.895Z" fill="white"/>
<path opacity="0.8" d="M153.32 266.895H149.108V284.952H153.32V266.895Z" fill="white"/>
<path d="M149.109 264.991H145.287V284.959H149.109V264.991Z" fill="white"/>
<path opacity="0.1" d="M149.109 264.991H145.287V284.959H149.109V264.991Z" fill="black"/>
<path d="M181.79 284.959H187.757V264.672H181.79V284.959Z" fill="white"/>
<path opacity="0.2" d="M181.79 284.959H187.757V264.672H181.79V284.959Z" fill="black"/>
<path d="M175.816 284.959H181.783V266.902H175.816V284.959Z" fill="white"/>
<path d="M168.367 284.959H172.579V266.902H168.367V284.959Z" fill="white"/>
<path opacity="0.9" d="M168.367 284.959H172.579V266.902H168.367V284.959Z" fill="white"/>
<path d="M172.571 284.952H176.393V264.984H172.571V284.952Z" fill="white"/>
<path opacity="0.1" d="M172.571 284.952H176.393V264.984H172.571V284.952Z" fill="black"/>
<path d="M162.392 284.959H168.359V264.672H162.392V284.959Z" fill="white"/>
<path d="M156.425 284.959H162.392V266.902H156.425V284.959Z" fill="white"/>
<path opacity="0.2" d="M156.425 284.959H162.392V266.902H156.425V284.959Z" fill="#263238"/>
<path d="M153.18 284.952H157.002V264.984H153.18V284.952Z" fill="white"/>
<path opacity="0.1" d="M153.18 284.952H157.002V264.984H153.18V284.952Z" fill="black"/>
<path d="M216.188 284.959H222.155V264.672H216.188V284.959Z" fill="white"/>
<path opacity="0.2" d="M216.188 284.959H222.155V264.672H216.188V284.959Z" fill="black"/>
<path d="M210.214 284.959H216.181V266.902H210.214V284.959Z" fill="white"/>
<path d="M202.765 284.959H206.977V266.902H202.765V284.959Z" fill="white"/>
<path opacity="0.9" d="M202.765 284.959H206.977V266.902H202.765V284.959Z" fill="white"/>
<path d="M206.969 284.952H210.791V264.984H206.969V284.952Z" fill="white"/>
<path opacity="0.1" d="M206.969 284.952H210.791V264.984H206.969V284.952Z" fill="black"/>
<path d="M196.79 284.959H202.757V264.672H196.79V284.959Z" fill="white"/>
<path d="M226.04 284.243L229.959 283.192L224.684 263.513L220.765 264.563L226.04 284.243Z" fill="white"/>
<path d="M190.823 284.959H196.79V266.902H190.823V284.959Z" fill="white"/>
<path opacity="0.2" d="M190.823 284.959H196.79V266.902H190.823V284.959Z" fill="#263238"/>
<path d="M187.578 284.952H191.4V264.984H187.578V284.952Z" fill="white"/>
<path opacity="0.1" d="M187.578 284.952H191.4V264.984H187.578V284.952Z" fill="black"/>
<path d="M228.038 311.313L232.046 310.239L226.795 290.642L222.787 291.716L228.038 311.313Z" fill="white"/>
<path opacity="0.2" d="M228.038 311.313L232.046 310.239L226.795 290.642L222.787 291.716L228.038 311.313Z" fill="black"/>
<path d="M217.741 311.113H223.708V293.056H217.741V311.113Z" fill="white"/>
<path d="M210.276 311.113H214.488V293.056H210.276V311.113Z" fill="white"/>
<path opacity="0.9" d="M210.276 311.113H214.488V293.056H210.276V311.113Z" fill="white"/>
<path d="M214.488 311.121H218.31V291.153H214.488V311.121Z" fill="white"/>
<path opacity="0.1" d="M214.488 311.121H218.31V291.153H214.488V311.121Z" fill="black"/>
<path d="M204.317 311.121H210.284V290.833H204.317V311.121Z" fill="white"/>
<path d="M198.342 311.113H204.309V293.056H198.342V311.113Z" fill="white"/>
<path opacity="0.2" d="M198.342 311.113H204.309V293.056H198.342V311.113Z" fill="#263238"/>
<path d="M190.893 311.113H195.105V293.056H190.893V311.113Z" fill="white"/>
<path opacity="0.8" d="M190.893 311.113H195.105V293.056H190.893V311.113Z" fill="white"/>
<path d="M195.097 311.121H198.919V291.153H195.097V311.121Z" fill="white"/>
<path opacity="0.1" d="M195.097 311.121H198.919V291.153H195.097V311.121Z" fill="black"/>
<path d="M162.423 290.833H156.456V311.121H162.423V290.833Z" fill="white"/>
<path opacity="0.2" d="M162.423 290.833H156.456V311.121H162.423V290.833Z" fill="black"/>
<path d="M168.39 293.063H162.423V311.12H168.39V293.063Z" fill="white"/>
<path d="M175.847 293.063H171.635V311.12H175.847V293.063Z" fill="white"/>
<path opacity="0.9" d="M175.847 293.063H171.635V311.12H175.847V293.063Z" fill="white"/>
<path d="M171.635 291.153H167.813V311.121H171.635V291.153Z" fill="white"/>
<path opacity="0.1" d="M171.635 291.153H167.813V311.121H171.635V291.153Z" fill="black"/>
<path d="M181.814 290.833H175.847V311.121H181.814V290.833Z" fill="white"/>
<path d="M187.781 293.063H181.814V311.12H187.781V293.063Z" fill="white"/>
<path opacity="0.2" d="M187.781 293.063H181.814V311.12H187.781V293.063Z" fill="#263238"/>
<path d="M191.026 291.153H187.204V311.121H191.026V291.153Z" fill="white"/>
<path opacity="0.1" d="M191.026 291.153H187.204V311.121H191.026V291.153Z" fill="black"/>
<path d="M128.025 290.833H122.058V311.121H128.025V290.833Z" fill="white"/>
<path opacity="0.2" d="M128.025 290.833H122.058V311.121H128.025V290.833Z" fill="black"/>
<path d="M133.992 293.063H128.025V311.12H133.992V293.063Z" fill="white"/>
<path d="M141.449 293.063H137.237V311.12H141.449V293.063Z" fill="white"/>
<path opacity="0.9" d="M141.449 293.063H137.237V311.12H141.449V293.063Z" fill="white"/>
<path d="M137.237 291.153H133.415V311.121H137.237V291.153Z" fill="white"/>
<path opacity="0.1" d="M137.237 291.153H133.415V311.121H137.237V291.153Z" fill="black"/>
<path d="M147.416 290.833H141.449V311.121H147.416V290.833Z" fill="white"/>
<path d="M122.046 291.7L118.143 290.654L112.892 310.251L116.795 311.296L122.046 291.7Z" fill="white"/>
<path d="M153.383 293.063H147.416V311.12H153.383V293.063Z" fill="white"/>
<path opacity="0.2" d="M153.383 293.063H147.416V311.12H153.383V293.063Z" fill="#263238"/>
<path d="M156.628 291.153H152.806V311.121H156.628V291.153Z" fill="white"/>
<path opacity="0.1" d="M156.628 291.153H152.806V311.121H156.628V291.153Z" fill="black"/>
<path d="M119.118 326.455H113.151L112.332 314.911H119.937L119.118 326.455Z" fill="#263238"/>
<path d="M232.849 326.455H226.882L226.063 314.911H233.668L232.849 326.455Z" fill="#263238"/>
<path d="M239.425 257.004H106.575C105.816 257.004 105.088 257.306 104.551 257.843C104.014 258.379 103.712 259.108 103.712 259.867V314.139C103.712 314.898 104.014 315.626 104.551 316.163C105.088 316.7 105.816 317.002 106.575 317.002H239.425C240.184 317.002 240.912 316.7 241.449 316.163C241.986 315.626 242.287 314.898 242.287 314.139V259.867C242.287 259.108 241.986 258.379 241.449 257.843C240.912 257.306 240.184 257.004 239.425 257.004V257.004ZM236.554 262.737V284.959H109.414V262.737H236.554ZM109.445 311.3V289.054H236.585V311.3H109.445Z" fill="white" stroke="#263238" stroke-width="0.75" stroke-linecap="round" stroke-linejoin="round"/>
<path d="M219.784 143.007H127.861C124.906 143.007 122.51 145.403 122.51 148.358V168.092C122.51 171.047 124.906 173.443 127.861 173.443H219.784C222.739 173.443 225.135 171.047 225.135 168.092V148.358C225.135 145.403 222.739 143.007 219.784 143.007Z" fill="#263238" stroke="#263238" stroke-linecap="round" stroke-linejoin="round"/>
<path d="M218.146 141.369H126.223C123.268 141.369 120.873 143.765 120.873 146.72V166.454C120.873 169.409 123.268 171.805 126.223 171.805H218.146C221.102 171.805 223.497 169.409 223.497 166.454V146.72C223.497 143.765 221.102 141.369 218.146 141.369Z" fill="white" stroke="#263238" stroke-linecap="round" stroke-linejoin="round"/>
<path d="M218.146 141.369H126.223C123.268 141.369 120.873 143.765 120.873 146.72V166.454C120.873 169.409 123.268 171.805 126.223 171.805H218.146C221.102 171.805 223.497 169.409 223.497 166.454V146.72C223.497 143.765 221.102 141.369 218.146 141.369Z" stroke="#263238" stroke-linecap="round" stroke-linejoin="round"/>
<path d="M143.594 165.573H130.077V148.475H139.086L143.594 152.983V165.573Z" fill="white"/>
<path opacity="0.5" d="M143.594 165.573H130.077V148.475H139.086L143.594 152.983V165.573Z" fill="white"/>
<path d="M143.594 165.573H130.077V148.475H139.086L143.594 152.983V165.573Z" stroke="#263238" stroke-linecap="round" stroke-linejoin="round"/>
<path d="M139.085 152.984H143.594L139.085 148.475V152.984Z" fill="white" stroke="#263238" stroke-linecap="round" stroke-linejoin="round"/>
<path d="M133.08 157.546C132.867 157.526 132.67 157.427 132.526 157.269C132.383 157.112 132.303 156.906 132.303 156.692C132.303 156.479 132.383 156.273 132.526 156.115C132.67 155.957 132.867 155.859 133.08 155.838H140.591C140.803 155.859 141.001 155.957 141.144 156.115C141.288 156.273 141.367 156.479 141.367 156.692C141.367 156.906 141.288 157.112 141.144 157.269C141.001 157.427 140.803 157.526 140.591 157.546H133.08Z" fill="#858585" stroke="#263238" stroke-width="0.75" stroke-linecap="round" stroke-linejoin="round"/>
<path d="M133.08 161.142C132.867 161.122 132.67 161.023 132.526 160.865C132.383 160.707 132.303 160.502 132.303 160.288C132.303 160.075 132.383 159.869 132.526 159.711C132.67 159.553 132.867 159.454 133.08 159.434H138.953C139.165 159.454 139.363 159.553 139.506 159.711C139.65 159.869 139.729 160.075 139.729 160.288C139.729 160.502 139.65 160.707 139.506 160.865C139.363 161.023 139.165 161.122 138.953 161.142H133.08Z" fill="#858585" stroke="#263238" stroke-width="0.75" stroke-linecap="round" stroke-linejoin="round"/>
<path d="M177.766 158.529H152.611C152.162 158.559 151.742 158.758 151.435 159.086C151.128 159.414 150.958 159.847 150.958 160.296C150.958 160.745 151.128 161.178 151.435 161.506C151.742 161.834 152.162 162.033 152.611 162.063H177.766V158.529Z" fill="white"/>
<path d="M152.611 162.063C152.162 162.033 151.742 161.834 151.435 161.506C151.128 161.178 150.958 160.745 150.958 160.296C150.958 159.847 151.128 159.414 151.435 159.086C151.742 158.758 152.162 158.559 152.611 158.529H212.515C212.757 158.513 212.999 158.547 213.227 158.628C213.456 158.71 213.665 158.837 213.842 159.003C214.019 159.169 214.16 159.369 214.256 159.591C214.353 159.814 214.403 160.054 214.403 160.296C214.403 160.538 214.353 160.778 214.256 161.001C214.16 161.223 214.019 161.423 213.842 161.589C213.665 161.754 213.456 161.882 213.227 161.964C212.999 162.045 212.757 162.079 212.515 162.063H152.611Z" stroke="#263238" stroke-linecap="round" stroke-linejoin="round"/>
<path d="M178.335 153.74H176.439V152.843L178.241 148.576H179.325V152.843H179.793V153.74H179.325V154.887H178.335V153.74ZM178.335 152.843V150.386L177.36 152.851L178.335 152.843Z" fill="#263238"/>
<path d="M180.254 153.397V152.905H181.19V153.467C181.19 153.919 181.385 154.083 181.705 154.083C182.025 154.083 182.22 153.919 182.22 153.467V152.055C182.22 151.603 182.017 151.431 181.705 151.431C181.393 151.431 181.19 151.603 181.19 152.055V152.11H180.254L180.433 148.584H183.046V149.489H181.315L181.237 150.994C181.324 150.846 181.45 150.725 181.601 150.644C181.753 150.563 181.923 150.525 182.095 150.534C182.82 150.534 183.195 151.049 183.195 151.977V153.397C183.195 154.411 182.688 154.957 181.713 154.957C180.738 154.957 180.254 154.411 180.254 153.397Z" fill="#263238"/>
<path d="M183.826 151.08V149.52C183.814 149.388 183.83 149.254 183.873 149.127C183.915 149.001 183.983 148.885 184.073 148.787C184.163 148.688 184.273 148.61 184.395 148.556C184.517 148.502 184.648 148.474 184.782 148.474C184.915 148.474 185.047 148.502 185.169 148.556C185.291 148.61 185.4 148.688 185.49 148.787C185.58 148.885 185.648 149.001 185.691 149.127C185.733 149.254 185.749 149.388 185.737 149.52V151.08C185.749 151.213 185.733 151.347 185.691 151.473C185.648 151.599 185.58 151.715 185.49 151.814C185.4 151.912 185.291 151.991 185.169 152.045C185.047 152.098 184.915 152.126 184.782 152.126C184.648 152.126 184.517 152.098 184.395 152.045C184.273 151.991 184.163 151.912 184.073 151.814C183.983 151.715 183.915 151.599 183.873 151.473C183.83 151.347 183.814 151.213 183.826 151.08V151.08ZM185.105 151.127V149.458C185.105 149.185 184.981 149.068 184.786 149.068C184.591 149.068 184.458 149.185 184.458 149.458V151.127C184.458 151.408 184.575 151.525 184.786 151.525C184.996 151.525 185.105 151.4 185.105 151.127ZM187.071 148.584H187.703L185.261 154.895H184.63L187.071 148.584ZM186.595 153.974V152.414C186.583 152.281 186.599 152.148 186.641 152.021C186.684 151.895 186.752 151.779 186.842 151.681C186.932 151.582 187.042 151.504 187.164 151.45C187.286 151.396 187.417 151.368 187.551 151.368C187.684 151.368 187.816 151.396 187.938 151.45C188.06 151.504 188.169 151.582 188.259 151.681C188.349 151.779 188.417 151.895 188.46 152.021C188.502 152.148 188.518 152.281 188.506 152.414V153.974C188.518 154.107 188.502 154.241 188.46 154.367C188.417 154.493 188.349 154.609 188.259 154.708C188.169 154.806 188.06 154.885 187.938 154.938C187.816 154.992 187.684 155.02 187.551 155.02C187.417 155.02 187.286 154.992 187.164 154.938C187.042 154.885 186.932 154.806 186.842 154.708C186.752 154.609 186.684 154.493 186.641 154.367C186.599 154.241 186.583 154.107 186.595 153.974ZM187.874 154.021V152.352C187.874 152.071 187.75 151.954 187.547 151.954C187.344 151.954 187.227 152.071 187.227 152.352V154.021C187.227 154.302 187.344 154.419 187.547 154.419C187.75 154.419 187.874 154.302 187.874 154.021V154.021Z" fill="#263238"/>
<path d="M219.784 178.326H127.861C124.906 178.326 122.51 180.721 122.51 183.676V203.41C122.51 206.366 124.906 208.761 127.861 208.761H219.784C222.739 208.761 225.135 206.366 225.135 203.41V183.676C225.135 180.721 222.739 178.326 219.784 178.326Z" fill="#263238" stroke="#263238" stroke-linecap="round" stroke-linejoin="round"/>
<path d="M218.146 176.688H126.223C123.268 176.688 120.873 179.083 120.873 182.038V201.772C120.873 204.728 123.268 207.123 126.223 207.123H218.146C221.102 207.123 223.497 204.728 223.497 201.772V182.038C223.497 179.083 221.102 176.688 218.146 176.688Z" fill="white" stroke="#263238" stroke-linecap="round" stroke-linejoin="round"/>
<path d="M197.609 193.629H152.611C152.162 193.659 151.742 193.858 151.435 194.186C151.128 194.514 150.958 194.947 150.958 195.396C150.958 195.845 151.128 196.278 151.435 196.606C151.742 196.934 152.162 197.133 152.611 197.163H197.609V193.629Z" fill="white"/>
<path d="M152.611 197.163C152.162 197.133 151.742 196.934 151.435 196.606C151.128 196.278 150.958 195.845 150.958 195.396C150.958 194.947 151.128 194.514 151.435 194.186C151.742 193.858 152.162 193.659 152.611 193.629H212.515C212.757 193.613 212.999 193.647 213.227 193.728C213.456 193.81 213.665 193.937 213.842 194.103C214.019 194.269 214.16 194.469 214.256 194.691C214.353 194.914 214.403 195.154 214.403 195.396C214.403 195.638 214.353 195.878 214.256 196.101C214.16 196.323 214.019 196.523 213.842 196.689C213.665 196.854 213.456 196.982 213.227 197.063C212.999 197.145 212.757 197.179 212.515 197.163H152.611Z" stroke="#263238" stroke-linecap="round" stroke-linejoin="round"/>
<path d="M176.557 188.528V187.967C176.526 187.712 176.571 187.454 176.686 187.225C176.801 186.996 176.981 186.807 177.204 186.68V186.68C176.992 186.556 176.821 186.372 176.713 186.151C176.604 185.931 176.564 185.683 176.596 185.439V185.182C176.596 184.781 176.755 184.396 177.039 184.112C177.323 183.828 177.707 183.669 178.109 183.669C178.51 183.669 178.895 183.828 179.179 184.112C179.463 184.396 179.622 184.781 179.622 185.182V185.439C179.65 185.683 179.607 185.931 179.498 186.151C179.388 186.371 179.217 186.554 179.006 186.68C179.23 186.805 179.412 186.995 179.528 187.224C179.645 187.453 179.691 187.711 179.661 187.967V188.528C179.661 188.942 179.497 189.339 179.204 189.631C178.912 189.924 178.515 190.088 178.101 190.088C177.687 190.088 177.29 189.924 176.998 189.631C176.705 189.339 176.541 188.942 176.541 188.528H176.557ZM178.67 188.473V187.865C178.67 187.389 178.475 187.155 178.109 187.155C177.742 187.155 177.547 187.389 177.547 187.865V188.473C177.547 188.949 177.742 189.183 178.109 189.183C178.475 189.183 178.67 188.949 178.67 188.473V188.473ZM178.67 185.627V185.127C178.67 184.714 178.491 184.495 178.148 184.495C177.805 184.495 177.625 184.714 177.625 185.127V185.627C177.625 186.04 177.805 186.258 178.148 186.258C178.491 186.258 178.631 186.04 178.631 185.627H178.67Z" fill="#263238"/>
<path d="M180.254 188.497V188.006H181.19V188.567C181.19 189.02 181.385 189.183 181.705 189.183C182.024 189.183 182.219 189.02 182.219 188.567V187.155C182.219 186.703 182.017 186.531 181.705 186.531C181.393 186.531 181.19 186.703 181.19 187.155V187.21H180.254L180.433 183.684H183.046V184.589H181.315L181.237 186.095C181.324 185.946 181.45 185.825 181.601 185.744C181.752 185.663 181.923 185.625 182.095 185.634C182.82 185.634 183.194 186.149 183.194 187.077V188.497C183.209 188.7 183.182 188.904 183.114 189.096C183.047 189.288 182.94 189.464 182.802 189.614C182.663 189.763 182.495 189.882 182.308 189.963C182.122 190.044 181.92 190.086 181.716 190.086C181.513 190.086 181.311 190.044 181.124 189.963C180.938 189.882 180.77 189.763 180.631 189.614C180.492 189.464 180.386 189.288 180.318 189.096C180.251 188.904 180.224 188.7 180.238 188.497H180.254Z" fill="#263238"/>
<path d="M183.826 186.18V184.62C183.814 184.488 183.83 184.354 183.873 184.227C183.915 184.101 183.983 183.985 184.073 183.887C184.163 183.788 184.273 183.71 184.395 183.656C184.517 183.602 184.648 183.574 184.782 183.574C184.915 183.574 185.047 183.602 185.169 183.656C185.291 183.71 185.4 183.788 185.49 183.887C185.58 183.985 185.648 184.101 185.691 184.227C185.733 184.354 185.749 184.488 185.737 184.62V186.18C185.749 186.313 185.733 186.447 185.691 186.573C185.648 186.699 185.58 186.815 185.49 186.914C185.4 187.012 185.291 187.091 185.169 187.145C185.047 187.198 184.915 187.226 184.782 187.226C184.648 187.226 184.517 187.198 184.395 187.145C184.273 187.091 184.163 187.012 184.073 186.914C183.983 186.815 183.915 186.699 183.873 186.573C183.83 186.447 183.814 186.313 183.826 186.18V186.18ZM185.105 186.227V184.558C185.105 184.285 184.981 184.16 184.786 184.16C184.591 184.16 184.458 184.285 184.458 184.558V186.227C184.458 186.508 184.575 186.625 184.786 186.625C184.996 186.625 185.105 186.5 185.105 186.227ZM187.071 183.684H187.703L185.261 189.994H184.63L187.071 183.684ZM186.595 189.074V187.514C186.583 187.381 186.599 187.248 186.641 187.121C186.684 186.995 186.752 186.879 186.842 186.781C186.932 186.682 187.042 186.604 187.164 186.55C187.286 186.496 187.417 186.468 187.551 186.468C187.684 186.468 187.816 186.496 187.938 186.55C188.06 186.604 188.169 186.682 188.259 186.781C188.349 186.879 188.417 186.995 188.46 187.121C188.502 187.248 188.518 187.381 188.506 187.514V189.074C188.518 189.207 188.502 189.341 188.46 189.467C188.417 189.593 188.349 189.709 188.259 189.808C188.169 189.906 188.06 189.985 187.938 190.038C187.816 190.092 187.684 190.12 187.551 190.12C187.417 190.12 187.286 190.092 187.164 190.038C187.042 189.985 186.932 189.906 186.842 189.808C186.752 189.709 186.684 189.593 186.641 189.467C186.599 189.341 186.583 189.207 186.595 189.074ZM187.874 189.121V187.452C187.874 187.171 187.75 187.054 187.547 187.054C187.344 187.054 187.227 187.171 187.227 187.452V189.121C187.227 189.402 187.344 189.519 187.547 189.519C187.75 189.519 187.874 189.402 187.874 189.121V189.121Z" fill="#263238"/>
<path d="M143.594 200.673H130.077V183.575H139.086L143.594 188.083V200.673Z" fill="white"/>
<path opacity="0.5" d="M143.594 200.673H130.077V183.575H139.086L143.594 188.083V200.673Z" fill="white" stroke="#263238" stroke-linecap="round" stroke-linejoin="round"/>
<path d="M143.594 200.673H130.077V183.575H139.086L143.594 188.083V200.673Z" stroke="#263238" stroke-linecap="round" stroke-linejoin="round"/>
<path d="M133.08 192.646C132.867 192.626 132.67 192.527 132.526 192.369C132.383 192.211 132.303 192.006 132.303 191.792C132.303 191.579 132.383 191.373 132.526 191.215C132.67 191.057 132.867 190.959 133.08 190.938H140.591C140.803 190.959 141.001 191.057 141.144 191.215C141.288 191.373 141.367 191.579 141.367 191.792C141.367 192.006 141.288 192.211 141.144 192.369C141.001 192.527 140.803 192.626 140.591 192.646H133.08Z" fill="#858585" stroke="#263238" stroke-width="0.75" stroke-linecap="round" stroke-linejoin="round"/>
<path d="M133.08 196.242C132.867 196.222 132.67 196.123 132.526 195.965C132.383 195.807 132.303 195.602 132.303 195.388C132.303 195.175 132.383 194.969 132.526 194.811C132.67 194.653 132.867 194.554 133.08 194.534H138.953C139.165 194.554 139.363 194.653 139.506 194.811C139.65 194.969 139.729 195.175 139.729 195.388C139.729 195.602 139.65 195.807 139.506 195.965C139.363 196.123 139.165 196.222 138.953 196.242H133.08Z" fill="#858585" stroke="#263238" stroke-width="0.75" stroke-linecap="round" stroke-linejoin="round"/>
<path d="M139.085 188.083H143.594L139.085 183.575V188.083Z" fill="white" stroke="#263238" stroke-linecap="round" stroke-linejoin="round"/>
<path d="M232.35 95.8485H115.288C112.333 95.8485 109.937 98.2441 109.937 101.199V128.398C109.937 131.353 112.333 133.749 115.288 133.749H232.35C235.305 133.749 237.701 131.353 237.701 128.398V101.199C237.701 98.2441 235.305 95.8485 232.35 95.8485Z" fill="#263238" stroke="#263238" stroke-linecap="round" stroke-linejoin="round"/>
<path d="M230.712 94.2104H113.65C110.694 94.2104 108.299 96.6061 108.299 99.5613V126.76C108.299 129.715 110.694 132.111 113.65 132.111H230.712C233.667 132.111 236.063 129.715 236.063 126.76V99.5613C236.063 96.6061 233.667 94.2104 230.712 94.2104Z" fill="white" stroke="#263238" stroke-linecap="round" stroke-linejoin="round"/>
<path d="M152.892 128.991H127.861V97.3304H144.546L152.892 105.669V128.991Z" fill="white"/>
<path opacity="0.7" d="M152.892 128.991H127.861V97.3304H144.546L152.892 105.669V128.991Z" fill="white"/>
<path d="M152.892 128.991H127.861V97.3304H144.546L152.892 105.669V128.991Z" stroke="#263238" stroke-linecap="round" stroke-linejoin="round"/>
<path d="M144.545 105.669H152.891L144.545 97.3304V105.669Z" fill="white" stroke="#263238" stroke-linecap="round" stroke-linejoin="round"/>
<path d="M135.248 109.569H130.334V114.483H135.248V109.569Z" stroke="white" stroke-width="0.75" stroke-linecap="round" stroke-linejoin="round"/>
<path d="M140.302 109.569H135.388V114.483H140.302V109.569Z" stroke="white" stroke-width="0.75" stroke-linecap="round" stroke-linejoin="round"/>
<path d="M145.364 109.569H140.45V114.483H145.364V109.569Z" stroke="white" stroke-width="0.75" stroke-linecap="round" stroke-linejoin="round"/>
<path d="M150.419 109.569H145.505V114.483H150.419V109.569Z" stroke="white" stroke-width="0.75" stroke-linecap="round" stroke-linejoin="round"/>
<path d="M135.248 114.483H130.334V119.397H135.248V114.483Z" stroke="white" stroke-width="0.75" stroke-linecap="round" stroke-linejoin="round"/>
<path d="M140.302 114.483H135.388V119.397H140.302V114.483Z" stroke="white" stroke-width="0.75" stroke-linecap="round" stroke-linejoin="round"/>
<path d="M145.364 114.483H140.45V119.397H145.364V114.483Z" stroke="white" stroke-width="0.75" stroke-linecap="round" stroke-linejoin="round"/>
<path d="M150.419 114.483H145.505V119.397H150.419V114.483Z" stroke="white" stroke-width="0.75" stroke-linecap="round" stroke-linejoin="round"/>
<path d="M135.248 119.397H130.334V124.311H135.248V119.397Z" stroke="white" stroke-width="0.75" stroke-linecap="round" stroke-linejoin="round"/>
<path d="M140.302 119.397H135.388V124.311H140.302V119.397Z" stroke="white" stroke-width="0.75" stroke-linecap="round" stroke-linejoin="round"/>
<path d="M145.364 119.397H140.45V124.311H145.364V119.397Z" stroke="white" stroke-width="0.75" stroke-linecap="round" stroke-linejoin="round"/>
<path d="M150.419 119.397H145.505V124.311H150.419V119.397Z" stroke="white" stroke-width="0.75" stroke-linecap="round" stroke-linejoin="round"/>
<path d="M130.427 123.835L135.388 119.28L137.845 119.397L140.528 114.553L142.907 116.94L145.575 114.139L147.962 109.569" stroke="white" stroke-width="2" stroke-linecap="round" stroke-linejoin="round"/>
<path d="M145.146 110.996L147.962 109.569L148.531 112.642" stroke="white" stroke-width="2" stroke-linecap="round" stroke-linejoin="round"/>
<path d="M162.735 112.15H161.3V111.199C162.439 111.199 162.86 110.949 163.156 110.115H164.061V118.695H162.712L162.735 112.15Z" fill="#263238"/>
<path d="M165.66 116.675V112.151C165.66 111.606 165.876 111.085 166.261 110.7C166.646 110.315 167.168 110.099 167.712 110.099C168.256 110.099 168.777 110.315 169.162 110.7C169.547 111.085 169.763 111.606 169.763 112.151V116.675C169.763 117.219 169.547 117.74 169.162 118.125C168.777 118.51 168.256 118.726 167.712 118.726C167.168 118.726 166.646 118.51 166.261 118.125C165.876 117.74 165.66 117.219 165.66 116.675V116.675ZM168.414 116.76V112.08C168.414 111.472 168.141 111.238 167.712 111.238C167.283 111.238 167.01 111.472 167.01 112.08V116.76C167.01 117.377 167.283 117.611 167.712 117.611C168.141 117.611 168.414 117.377 168.414 116.76Z" fill="#263238"/>
<path d="M170.574 116.675V112.151C170.574 111.606 170.79 111.085 171.175 110.7C171.56 110.315 172.082 110.099 172.626 110.099C173.17 110.099 173.691 110.315 174.076 110.7C174.461 111.085 174.677 111.606 174.677 112.151V116.675C174.677 117.219 174.461 117.74 174.076 118.125C173.691 118.51 173.17 118.726 172.626 118.726C172.082 118.726 171.56 118.51 171.175 118.125C170.79 117.74 170.574 117.219 170.574 116.675V116.675ZM173.328 116.76V112.08C173.328 111.472 173.055 111.238 172.626 111.238C172.197 111.238 171.924 111.472 171.924 112.08V116.76C171.924 117.377 172.197 117.611 172.626 117.611C173.055 117.611 173.328 117.377 173.328 116.76Z" fill="#263238"/>
<path d="M175.511 113.515V111.37C175.511 111.025 175.648 110.694 175.893 110.449C176.137 110.205 176.468 110.068 176.814 110.068C177.159 110.068 177.491 110.205 177.735 110.449C177.979 110.694 178.116 111.025 178.116 111.37V113.515C178.116 113.861 177.979 114.192 177.735 114.437C177.491 114.681 177.159 114.818 176.814 114.818C176.468 114.818 176.137 114.681 175.893 114.437C175.648 114.192 175.511 113.861 175.511 113.515V113.515ZM177.258 113.578V111.308C177.258 110.926 177.087 110.762 176.814 110.762C176.541 110.762 176.369 110.926 176.369 111.308V113.578C176.369 113.96 176.533 114.116 176.814 114.116C177.095 114.116 177.258 113.96 177.258 113.578V113.578ZM179.934 110.115H180.8L177.469 118.695H176.611L179.934 110.115ZM179.279 117.462V115.309C179.279 115.138 179.312 114.969 179.378 114.811C179.443 114.653 179.539 114.509 179.66 114.388C179.781 114.267 179.925 114.171 180.083 114.106C180.241 114.041 180.41 114.007 180.581 114.007C180.752 114.007 180.922 114.041 181.08 114.106C181.238 114.171 181.381 114.267 181.502 114.388C181.623 114.509 181.719 114.653 181.785 114.811C181.85 114.969 181.884 115.138 181.884 115.309V117.462C181.884 117.633 181.85 117.803 181.785 117.961C181.719 118.119 181.623 118.262 181.502 118.383C181.381 118.504 181.238 118.6 181.08 118.666C180.922 118.731 180.752 118.765 180.581 118.765C180.41 118.765 180.241 118.731 180.083 118.666C179.925 118.6 179.781 118.504 179.66 118.383C179.539 118.262 179.443 118.119 179.378 117.961C179.312 117.803 179.279 117.633 179.279 117.462ZM181.026 117.525V115.247C181.026 114.865 180.854 114.709 180.581 114.709C180.308 114.709 180.144 114.865 180.144 115.247V117.525C180.144 117.899 180.3 118.063 180.581 118.063C180.862 118.063 181.026 117.899 181.026 117.525V117.525Z" fill="#263238"/>
<path d="M184.068 116.027V112.634C184.068 112.247 184.222 111.876 184.495 111.603C184.769 111.329 185.14 111.175 185.526 111.175C185.913 111.175 186.284 111.329 186.558 111.603C186.831 111.876 186.985 112.247 186.985 112.634V113.305H186.049V112.572C186.049 112.158 185.846 111.987 185.55 111.987C185.253 111.987 185.058 112.158 185.058 112.572V116.097C185.058 116.511 185.253 116.674 185.55 116.674C185.846 116.674 186.049 116.511 186.049 116.097V115.13H186.985V116.027C186.985 116.414 186.831 116.785 186.558 117.058C186.284 117.332 185.913 117.486 185.526 117.486C185.14 117.486 184.769 117.332 184.495 117.058C184.222 116.785 184.068 116.414 184.068 116.027Z" fill="#263238"/>
<path d="M187.523 115.988V112.673C187.523 112.274 187.682 111.891 187.964 111.609C188.247 111.326 188.63 111.168 189.029 111.168C189.428 111.168 189.811 111.326 190.093 111.609C190.376 111.891 190.534 112.274 190.534 112.673V115.988C190.534 116.387 190.376 116.77 190.093 117.052C189.811 117.335 189.428 117.493 189.029 117.493C188.63 117.493 188.247 117.335 187.964 117.052C187.682 116.77 187.523 116.387 187.523 115.988V115.988ZM189.544 116.05V112.611C189.544 112.158 189.349 111.987 189.029 111.987C188.709 111.987 188.514 112.158 188.514 112.611V116.05C188.514 116.503 188.717 116.674 189.029 116.674C189.341 116.674 189.544 116.503 189.544 116.05Z" fill="#263238"/>
<path d="M191.197 111.175H192.617L193.249 115.692L193.88 111.175H195.292V117.486H194.356V112.712L193.631 117.486H192.804L192.086 112.712V117.486H191.221L191.197 111.175Z" fill="#263238"/>
<path d="M196.049 111.175H197.507C198.498 111.175 198.982 111.729 198.982 112.735V113.359C198.982 114.366 198.498 114.919 197.507 114.919H197.039V117.486H196.049V111.175ZM197.507 114.015C197.819 114.015 197.991 113.874 197.991 113.422V112.642C197.991 112.189 197.819 112.049 197.507 112.049H197.039V113.983L197.507 114.015Z" fill="#263238"/>
<path d="M199.52 111.175H200.511V116.581H202.141V117.486H199.52V111.175Z" fill="#263238"/>
<path d="M202.64 111.175H205.338V112.08H203.63V113.742H204.98V114.646H203.622V116.581H205.331V117.486H202.64V111.175Z" fill="#263238"/>
<path d="M206.665 112.08H205.635V111.175H208.693V112.08H207.655V117.486H206.665V112.08Z" fill="#263238"/>
<path d="M209.176 111.175H211.875V112.08H210.167V113.742H211.524V114.646H210.167V116.581H211.875V117.486H209.176V111.175Z" fill="#263238"/>
<path d="M212.444 111.175H213.958C214.948 111.175 215.432 111.729 215.432 112.735V115.926C215.432 116.932 214.948 117.486 213.958 117.486H212.444V111.175ZM213.934 116.581C214.254 116.581 214.441 116.417 214.441 115.972V112.689C214.441 112.244 214.254 112.08 213.934 112.08H213.435V116.581H213.934Z" fill="#263238"/>
<path d="M219.784 213.652H127.861C124.906 213.652 122.51 216.048 122.51 219.003V238.737C122.51 241.692 124.906 244.087 127.861 244.087H219.784C222.739 244.087 225.135 241.692 225.135 238.737V219.003C225.135 216.048 222.739 213.652 219.784 213.652Z" fill="#263238" stroke="#263238" stroke-linecap="round" stroke-linejoin="round"/>
<path d="M218.146 212.014H126.223C123.268 212.014 120.873 214.41 120.873 217.365V237.099C120.873 240.054 123.268 242.45 126.223 242.45H218.146C221.102 242.45 223.497 240.054 223.497 237.099V217.365C223.497 214.41 221.102 212.014 218.146 212.014Z" fill="white" stroke="#263238" stroke-linecap="round" stroke-linejoin="round"/>
<path d="M194.434 228.737H152.61C152.143 228.737 151.695 228.923 151.364 229.253C151.033 229.584 150.848 230.032 150.848 230.5C150.848 230.967 151.033 231.416 151.364 231.746C151.695 232.077 152.143 232.263 152.61 232.263H194.434V228.737Z" fill="white"/>
<path d="M152.61 232.263C152.143 232.263 151.695 232.077 151.364 231.746C151.033 231.416 150.848 230.967 150.848 230.5C150.848 230.032 151.033 229.584 151.364 229.253C151.695 228.923 152.143 228.737 152.61 228.737H212.514C212.746 228.737 212.975 228.783 213.189 228.871C213.403 228.96 213.597 229.09 213.761 229.253C213.925 229.417 214.054 229.611 214.143 229.825C214.232 230.039 214.277 230.268 214.277 230.5C214.277 230.731 214.232 230.961 214.143 231.174C214.054 231.388 213.925 231.583 213.761 231.746C213.597 231.91 213.403 232.04 213.189 232.128C212.975 232.217 212.746 232.263 212.514 232.263H152.61Z" stroke="#263238" stroke-linecap="round" stroke-linejoin="round"/>
<path d="M143.594 235.78H130.077V218.683H139.086L143.594 223.183V235.78Z" fill="white"/>
<path opacity="0.5" d="M143.594 235.78H130.077V218.683H139.086L143.594 223.183V235.78Z" fill="white"/>
<path d="M143.594 235.78H130.077V218.683H139.086L143.594 223.183V235.78Z" stroke="#263238" stroke-linecap="round" stroke-linejoin="round"/>
<path d="M133.08 227.754C132.867 227.734 132.67 227.635 132.526 227.477C132.383 227.319 132.303 227.114 132.303 226.9C132.303 226.687 132.383 226.481 132.526 226.323C132.67 226.165 132.867 226.066 133.08 226.046H140.591C140.803 226.066 141.001 226.165 141.144 226.323C141.288 226.481 141.367 226.687 141.367 226.9C141.367 227.114 141.288 227.319 141.144 227.477C141.001 227.635 140.803 227.734 140.591 227.754H133.08Z" fill="#858585" stroke="#263238" stroke-width="0.75" stroke-linecap="round" stroke-linejoin="round"/>
<path d="M133.079 231.342C132.854 231.342 132.637 231.253 132.478 231.093C132.319 230.934 132.229 230.718 132.229 230.492C132.229 230.267 132.319 230.05 132.478 229.891C132.637 229.731 132.854 229.642 133.079 229.642H138.953C139.178 229.642 139.394 229.731 139.554 229.891C139.713 230.05 139.803 230.267 139.803 230.492C139.803 230.718 139.713 230.934 139.554 231.093C139.394 231.253 139.178 231.342 138.953 231.342H133.079Z" fill="#858585" stroke="#263238" stroke-width="0.75" stroke-linecap="round" stroke-linejoin="round"/>
<path d="M139.085 223.183H143.594L139.085 218.683V223.183Z" fill="white" stroke="#263238" stroke-linecap="round" stroke-linejoin="round"/>
<path d="M178.616 219.689H176.611V218.792H179.583V219.658L178.023 225.118H177.009L178.616 219.689Z" fill="#263238"/>
<path d="M180.207 223.605V220.29C180.207 219.89 180.366 219.508 180.648 219.225C180.93 218.943 181.313 218.784 181.712 218.784C182.112 218.784 182.495 218.943 182.777 219.225C183.059 219.508 183.218 219.89 183.218 220.29V223.605C183.218 224.004 183.059 224.387 182.777 224.669C182.495 224.951 182.112 225.11 181.712 225.11C181.313 225.11 180.93 224.951 180.648 224.669C180.366 224.387 180.207 224.004 180.207 223.605ZM182.227 223.667V220.227C182.227 219.775 182.024 219.603 181.712 219.603C181.4 219.603 181.198 219.775 181.198 220.227V223.667C181.198 224.119 181.4 224.283 181.712 224.283C182.024 224.283 182.227 224.119 182.227 223.667Z" fill="#263238"/>
<path d="M183.826 221.288V219.728C183.814 219.595 183.83 219.462 183.873 219.335C183.915 219.209 183.983 219.093 184.073 218.995C184.163 218.896 184.273 218.818 184.395 218.764C184.517 218.71 184.648 218.682 184.782 218.682C184.915 218.682 185.047 218.71 185.169 218.764C185.291 218.818 185.4 218.896 185.49 218.995C185.58 219.093 185.648 219.209 185.691 219.335C185.733 219.462 185.749 219.595 185.737 219.728V221.288C185.749 221.421 185.733 221.555 185.691 221.681C185.648 221.807 185.58 221.923 185.49 222.022C185.4 222.12 185.291 222.199 185.169 222.252C185.047 222.306 184.915 222.334 184.782 222.334C184.648 222.334 184.517 222.306 184.395 222.252C184.273 222.199 184.163 222.12 184.073 222.022C183.983 221.923 183.915 221.807 183.873 221.681C183.83 221.555 183.814 221.421 183.826 221.288V221.288ZM185.105 221.335V219.666C185.105 219.385 184.981 219.268 184.786 219.268C184.591 219.268 184.458 219.385 184.458 219.666V221.335C184.458 221.608 184.575 221.725 184.786 221.725C184.996 221.725 185.105 221.6 185.105 221.335ZM187.04 218.792H187.672L185.23 225.094H184.598L187.04 218.792ZM186.564 224.182V222.622C186.552 222.489 186.568 222.355 186.61 222.229C186.653 222.103 186.721 221.987 186.811 221.888C186.901 221.79 187.01 221.711 187.132 221.658C187.254 221.604 187.386 221.576 187.519 221.576C187.653 221.576 187.785 221.604 187.906 221.658C188.028 221.711 188.138 221.79 188.228 221.888C188.318 221.987 188.386 222.103 188.429 222.229C188.471 222.355 188.487 222.489 188.475 222.622V224.182C188.487 224.315 188.471 224.448 188.429 224.575C188.386 224.701 188.318 224.817 188.228 224.915C188.138 225.014 188.028 225.092 187.906 225.146C187.785 225.2 187.653 225.228 187.519 225.228C187.386 225.228 187.254 225.2 187.132 225.146C187.01 225.092 186.901 225.014 186.811 224.915C186.721 224.817 186.653 224.701 186.61 224.575C186.568 224.448 186.552 224.315 186.564 224.182V224.182ZM187.843 224.221V222.559C187.843 222.279 187.718 222.162 187.516 222.162C187.313 222.162 187.196 222.279 187.196 222.559V224.221C187.196 224.502 187.313 224.619 187.516 224.619C187.718 224.619 187.874 224.502 187.874 224.221H187.843Z" fill="#263238"/>
<path d="M70.3833 57.9561L90.9675 42.0441L111.552 57.9561H70.3833Z" fill="#263238" stroke="#263238" stroke-linecap="round" stroke-linejoin="round"/>
<path d="M96.3495 40.796H85.5854V50H96.3495V40.796Z" fill="#263238" stroke="#263238" stroke-linecap="round" stroke-linejoin="round"/>
<path d="M90.9673 17.9265V50.0001" stroke="#263238" stroke-width="0.75" stroke-linecap="round" stroke-linejoin="round"/>
<path d="M234.44 57.9561L255.032 42.0441L275.617 57.9561H234.44Z" fill="#263238" stroke="#263238" stroke-linecap="round" stroke-linejoin="round"/>
<path d="M260.415 40.796H249.651V50H260.415V40.796Z" fill="#263238" stroke="#263238" stroke-linecap="round" stroke-linejoin="round"/>
<path d="M255.033 16.3665V50.0001" stroke="#263238" stroke-width="0.75" stroke-linecap="round" stroke-linejoin="round"/>
<path d="M263.067 306.3L262.63 319.17L269.291 319.49L271.717 306.3H263.067Z" fill="white" stroke="#263238" stroke-linecap="round" stroke-linejoin="round"/>
<path d="M250.033 323.117C252.279 322.337 256.163 321.011 257.622 320.098C258.792 319.365 260.422 316.978 261.631 316.308C261.885 316.198 262.158 316.141 262.435 316.141C262.711 316.141 262.984 316.198 263.238 316.308C263.434 316.526 263.562 316.797 263.605 317.088C263.638 317.213 263.708 317.327 263.805 317.413C263.903 317.5 264.023 317.556 264.152 317.574C264.281 317.592 264.413 317.572 264.53 317.516C264.648 317.46 264.746 317.371 264.814 317.259C265 316.893 265.267 316.573 265.594 316.323C266.623 315.746 269.408 315.582 270.32 316.323C271.834 317.563 272.38 321.838 272.66 323.764C272.731 324.186 272.66 326.526 272.66 326.526H248.356V325.457C248.352 324.94 248.513 324.435 248.814 324.015C249.115 323.594 249.542 323.28 250.033 323.117V323.117Z" fill="white" stroke="#263238" stroke-linecap="round" stroke-linejoin="round"/>
<path d="M272.676 326.51H248.355V325.441C248.355 325.176 248.4 324.912 248.488 324.661H272.707C272.707 325.48 272.676 326.51 272.676 326.51Z" fill="#858585" stroke="#263238" stroke-linecap="round" stroke-linejoin="round"/>
<path d="M267.271 206.523L262.162 311.199L271.522 312.759C271.522 312.759 277.418 282.463 278.136 272.542C278.308 270.202 278.136 263.143 278.136 263.143L284.758 230.547C284.758 230.547 289.118 226.522 289.625 207.357L267.271 206.523Z" fill="#263238" stroke="#263238" stroke-linecap="round" stroke-linejoin="round"/>
<path opacity="0.7" d="M281.124 247.036C281.482 245.523 281.904 244.033 282.411 242.551C282.489 242.34 282.582 242.145 282.676 241.95C282.908 239.735 283.265 237.534 283.744 235.359C283.91 234.547 284.347 233.815 284.985 233.284C285.167 232.873 285.438 232.508 285.78 232.215C286.121 231.922 286.524 231.709 286.958 231.592C286.671 229.578 286.233 227.588 285.648 225.64C285.055 223.597 284.088 221.639 283.799 219.525C283.721 218.979 283.409 218.41 283.51 218.347C282.84 218.086 282.184 217.789 281.545 217.458L281.428 217.365C280.83 227.244 280.728 237.147 281.124 247.036V247.036Z" fill="black"/>
<path d="M266.826 266.395C268.483 266.012 270.004 265.184 271.225 264.001" stroke="#7F7F7F" stroke-width="0.75" stroke-linecap="round" stroke-linejoin="round"/>
<path d="M260.929 313.188L272.247 314.116L273.089 310.45L260.929 309.498V313.188Z" fill="white" stroke="#263238" stroke-linecap="round" stroke-linejoin="round"/>
<path d="M293.611 304.717L296.022 319.763L302.184 319.279L301.981 303.874L293.611 304.717Z" fill="white" stroke="#263238" stroke-linecap="round" stroke-linejoin="round"/>
<path d="M283.292 323.117C285.546 322.337 289.43 321.011 290.881 320.098C292.051 319.365 293.689 316.978 294.89 316.308C295.145 316.198 295.42 316.141 295.698 316.141C295.975 316.141 296.25 316.198 296.505 316.308C296.646 316.453 296.746 316.633 296.794 316.83C296.835 316.979 296.921 317.113 297.039 317.213C297.157 317.314 297.302 317.377 297.456 317.394C297.61 317.412 297.766 317.383 297.903 317.312C298.041 317.241 298.154 317.13 298.229 316.994C298.388 316.725 298.6 316.491 298.853 316.308C299.882 315.73 302.667 315.567 303.58 316.308C305.093 317.548 305.639 321.822 305.92 323.749C305.982 324.17 305.92 326.51 305.92 326.51H281.623V325.441C281.622 324.928 281.783 324.427 282.082 324.01C282.382 323.593 282.805 323.281 283.292 323.117V323.117Z" fill="white" stroke="#263238" stroke-linecap="round" stroke-linejoin="round"/>
<path d="M305.943 326.51H281.623V325.441C281.62 325.176 281.662 324.912 281.748 324.661H305.967C305.967 325.48 305.943 326.51 305.943 326.51Z" fill="#858585" stroke="#263238" stroke-linecap="round" stroke-linejoin="round"/>
<path d="M280.297 209.682C280.297 209.682 282.637 223.23 284.79 234.595C286.256 242.301 286.35 265.069 286.35 265.069L293.822 312.08L303.034 310.84C303.034 310.84 303.143 281.902 302.106 272.62C301.872 270.553 301.489 264.414 301.489 264.414C301.489 264.414 301.84 239.86 303.736 231.654C305.093 225.804 307.792 219.658 304.516 207.669L280.297 209.682Z" fill="#263238" stroke="#263238" stroke-linecap="round" stroke-linejoin="round"/>
<path d="M288.37 266.395C289.307 267.692 290.7 268.587 292.27 268.899" stroke="#7F7F7F" stroke-width="0.75" stroke-linecap="round" stroke-linejoin="round"/>
<path d="M292.277 309.966L292.808 313.414L304.227 312.189L304.149 308.476L292.277 309.966Z" fill="white" stroke="#263238" stroke-linecap="round" stroke-linejoin="round"/>
<path d="M236.827 147.009L234.308 142.773C234.308 142.773 233.7 135.855 232.296 134.505C230.892 133.156 227.772 129.186 227.327 129.966C226.625 131.214 229.222 133.437 229.222 133.437L229.698 136.011C229.698 136.011 225.494 132.984 224.308 132.984C224.308 132.984 220.954 129.014 219.769 129.006C218.583 128.998 220.252 131.752 220.252 131.752C220.252 131.752 219.121 130.886 218.903 131.424C218.685 131.962 220.362 133.803 220.362 133.803C220.362 133.803 219.714 134.505 220.689 136.011C220.554 136.497 220.556 137.011 220.693 137.497C220.831 137.982 221.099 138.421 221.469 138.764C222.764 139.794 229.722 143.733 229.722 143.733L232.062 149.239L236.827 147.009Z" fill="#858585" stroke="#263238" stroke-linecap="round" stroke-linejoin="round"/>
<path d="M221.282 133.912C221.282 133.912 222.202 134.287 221.82 135.636C222.187 136.158 222.393 136.777 222.413 137.415C222.506 138.6 228.512 138.015 230.135 140.535" stroke="#263238" stroke-width="0.75" stroke-linecap="round" stroke-linejoin="round"/>
<path d="M221.282 132.454L223.731 135.043" stroke="#263238" stroke-width="0.75" stroke-linecap="round" stroke-linejoin="round"/>
<path d="M262.832 145.94L246.757 158.467L235.743 143.46L230.135 146.268C230.135 146.268 238.949 170.619 245.618 170.619C252.708 170.619 266.186 159.231 266.186 159.231C266.186 159.231 267.037 157.055 262.832 145.94Z" fill="white" stroke="#263238" stroke-linecap="round" stroke-linejoin="round"/>
<path d="M247.365 159.66C247.741 160.459 248.021 161.299 248.2 162.164" stroke="#263238" stroke-width="0.75" stroke-linecap="round" stroke-linejoin="round"/>
<path d="M262.833 145.94L266.257 191.266V210.095C266.257 210.095 285.983 212.435 305.444 209.596L304.773 190.213L306.746 147.009C306.746 147.009 297.714 140.48 283.846 140.48C269.977 140.48 262.833 145.94 262.833 145.94Z" fill="white" stroke="#263238" stroke-linecap="round" stroke-linejoin="round"/>
<path opacity="0.2" d="M305.444 209.596L304.82 192.225C304.485 200.595 295.249 197.451 293.159 197.061C290.92 196.64 288.346 204.019 288.346 204.019C288.346 204.019 279.766 205.493 273.051 204.97C266.335 204.448 266.233 198.317 266.233 198.317V210.095C266.233 210.095 285.983 212.466 305.444 209.596Z" fill="black"/>
<path d="M275.5 190.829C283.772 189.939 291.71 187.08 298.65 182.491Z" fill="white"/>
<path d="M275.5 190.829C283.772 189.939 291.71 187.08 298.65 182.491" stroke="#263238" stroke-width="0.75" stroke-linecap="round" stroke-linejoin="round"/>
<path d="M272.06 191.063C272.06 191.063 272.723 191.063 273.893 190.977Z" fill="white"/>
<path d="M272.06 191.063C272.06 191.063 272.723 191.063 273.893 190.977" stroke="#263238" stroke-width="0.75" stroke-linecap="round" stroke-linejoin="round"/>
<path d="M278.737 148.124L275.32 146.884L272.06 150.035L274.447 140.285L277.325 138.023L278.791 138.951L285.343 138.702L290.437 139.115L292.863 138.366L295.452 140.956L289.688 151.977L287.27 147.804L281.935 148.467L278.737 148.124Z" fill="white"/>
<path opacity="0.5" d="M278.737 148.124L275.32 146.884L272.06 150.035L274.447 140.285L277.325 138.023L278.791 138.951L285.343 138.702L290.437 139.115L292.863 138.366L295.452 140.956L289.688 151.977L287.27 147.804L281.935 148.467L278.737 148.124Z" fill="white"/>
<path d="M278.737 148.124L275.32 146.884L272.06 150.035L274.447 140.285L277.325 138.023L278.791 138.951L285.343 138.702L290.437 139.115L292.863 138.366L295.452 140.956L289.688 151.977L287.27 147.804L281.935 148.467L278.737 148.124Z" stroke="#263238" stroke-linecap="round" stroke-linejoin="round"/>
<path d="M290.086 140.925L289.306 129.006L281.771 130.34L280.211 135.94L278.651 140.792L277.91 140.87L279.962 152.008L290.835 141.088L290.086 140.925Z" fill="#858585"/>
<path d="M271.561 129.833C271.561 132.859 272.029 139.63 276.186 140.418C280.492 141.237 285.429 136.338 287.2 134.38C287.643 133.894 287.99 133.327 288.221 132.711L289.165 130.207C289.782 130.255 290.399 130.125 290.944 129.833H271.561Z" fill="#263238" stroke="#263238" stroke-width="0.5" stroke-linecap="round" stroke-linejoin="round"/>
<path d="M290.086 140.925L289.306 129.006L281.771 130.34L280.211 135.94L278.651 140.792L277.91 140.87L279.962 152.008L290.835 141.088L290.086 140.925Z" stroke="#263238" stroke-linecap="round" stroke-linejoin="round"/>
<path d="M276.584 114.529C276.584 114.529 273.019 111.815 274.767 109.678C275.679 108.57 276.865 110.029 276.865 110.029C276.865 110.029 276.233 106.628 278.768 106.129C281.108 105.692 281.014 108.375 281.014 108.375C281.014 108.375 282.223 106.074 284.337 106.589C286.022 106.995 285.375 109.381 285.375 109.381C285.375 109.381 287.621 106.589 289.945 107.821C291.95 108.874 290.296 111.402 290.296 111.402C290.296 111.402 292.683 110.559 294.017 111.901C295.351 113.242 294.017 115.021 294.017 115.021C294.017 115.021 296.646 115.021 296.763 116.986C296.88 118.952 294.727 119.326 294.727 119.326C294.727 119.326 297.769 120.309 297.792 122.696C297.816 125.083 295.78 124.318 295.78 124.318C295.78 124.318 297.043 126.565 295.99 127.758C295.872 127.918 295.718 128.048 295.541 128.137C295.363 128.226 295.167 128.273 294.969 128.273C294.77 128.273 294.574 128.226 294.397 128.137C294.219 128.048 294.065 127.918 293.947 127.758C293.947 127.758 295.265 130.59 293.596 131.416C292.402 132.001 291.7 130.566 291.7 130.566C291.7 130.566 290.694 133.015 289.477 131.518C288.261 130.02 282.223 118.484 282.223 118.484L276.584 114.529Z" fill="#263238" stroke="#263238" stroke-width="0.75" stroke-linecap="round" stroke-linejoin="round"/>
<path d="M275.554 114.639L273.308 119.319C273.078 119.806 272.958 120.339 272.957 120.879V122.345L271.717 125.465C271.653 125.628 271.601 125.794 271.561 125.964C271.163 127.626 269.268 136.549 273.901 138.366C277.988 139.973 283.744 136.096 285.858 134.505C286.385 134.108 286.83 133.613 287.169 133.047L288.573 130.769C289.169 130.947 289.806 130.932 290.393 130.726C290.98 130.52 291.487 130.134 291.841 129.622C293.097 127.821 294.547 126.846 292.824 125.223C291.1 123.601 289.509 126.198 289.509 126.198L289.743 121.62L287.746 118.11L287.644 115.902C287.644 115.902 281.108 115.177 276.724 112.782L275.554 114.639Z" fill="white" stroke="#263238" stroke-width="0.75" stroke-linecap="round" stroke-linejoin="round"/>
<path d="M275.554 114.639L273.308 119.319C273.078 119.806 272.958 120.339 272.957 120.879V122.345L271.717 125.465C271.653 125.628 271.601 125.794 271.561 125.964C271.163 127.626 269.268 136.549 273.901 138.366C277.988 139.973 283.744 136.096 285.858 134.505C286.385 134.108 286.83 133.613 287.169 133.047L288.573 130.769C289.169 130.947 289.806 130.932 290.393 130.726C290.98 130.52 291.487 130.134 291.841 129.622C293.097 127.821 294.547 126.846 292.824 125.223C291.1 123.601 289.509 126.198 289.509 126.198L289.743 121.62L287.746 118.11L287.644 115.902C287.644 115.902 281.108 115.177 276.724 112.782L275.554 114.639Z" fill="#858585" stroke="#263238" stroke-linecap="round" stroke-linejoin="round"/>
<path d="M279.532 130.621C278.268 133.062 276.552 132.657 275.476 132.048" stroke="#263238" stroke-width="0.75" stroke-linecap="round" stroke-linejoin="round"/>
<path d="M279.555 125.075C279.384 125.629 279.033 126.011 278.776 125.933C278.518 125.855 278.432 125.332 278.604 124.779C278.776 124.225 279.127 123.835 279.384 123.921C279.641 124.006 279.727 124.521 279.555 125.075Z" fill="#263238"/>
<path d="M274.345 123.46C274.173 124.022 273.822 124.404 273.565 124.318C273.308 124.233 273.222 123.718 273.393 123.164C273.565 122.61 273.924 122.228 274.173 122.314C274.423 122.4 274.517 122.907 274.345 123.46Z" fill="#263238"/>
<path d="M273.971 119.857C274.177 119.799 274.394 119.784 274.606 119.814C274.819 119.843 275.023 119.916 275.206 120.028C275.389 120.14 275.547 120.289 275.67 120.465C275.793 120.641 275.878 120.84 275.921 121.05" stroke="#263238" stroke-width="0.75" stroke-linecap="round" stroke-linejoin="round"/>
<path d="M278.456 121.986C278.456 121.986 280.273 120.075 281.498 122.103" stroke="#263238" stroke-width="0.75" stroke-linecap="round" stroke-linejoin="round"/>
<path d="M275.96 123.952C275.796 124.697 275.446 125.388 274.941 125.96C274.436 126.532 273.793 126.966 273.074 127.22L274.493 129.474" stroke="#263238" stroke-width="0.75" stroke-linecap="round" stroke-linejoin="round"/>
<path d="M285.016 213.379L284.618 215.789C284.561 216.187 284.659 216.592 284.893 216.919C285.127 217.246 285.479 217.47 285.874 217.544L310.888 221.647C311.286 221.704 311.691 221.605 312.018 221.371C312.345 221.137 312.569 220.786 312.643 220.391L313.033 217.981L285.016 213.379Z" fill="white" stroke="#263238" stroke-width="0.75" stroke-linecap="round" stroke-linejoin="round"/>
<path d="M314.154 202.793L288.854 198.641C288.101 198.518 287.391 199.027 287.268 199.78L284.76 215.058C284.637 215.811 285.147 216.521 285.899 216.644L311.199 220.797C311.952 220.92 312.662 220.41 312.785 219.658L315.293 204.379C315.416 203.627 314.906 202.917 314.154 202.793Z" fill="white"/>
<path opacity="0.5" d="M314.154 202.793L288.854 198.641C288.101 198.518 287.391 199.027 287.268 199.78L284.76 215.058C284.637 215.811 285.147 216.521 285.899 216.644L311.199 220.797C311.952 220.92 312.662 220.41 312.785 219.658L315.293 204.379C315.416 203.627 314.906 202.917 314.154 202.793Z" fill="white"/>
<path d="M314.154 202.793L288.854 198.641C288.101 198.518 287.391 199.027 287.268 199.78L284.76 215.058C284.637 215.811 285.147 216.521 285.899 216.644L311.199 220.797C311.952 220.92 312.662 220.41 312.785 219.658L315.293 204.379C315.416 203.627 314.906 202.917 314.154 202.793Z" stroke="#263238" stroke-linecap="round" stroke-linejoin="round"/>
<path d="M304.391 205.641L303.01 210.321L298.33 213.667C297.668 215.716 296.887 217.724 295.99 219.681C295.931 219.79 295.9 219.913 295.9 220.037C295.901 220.161 295.933 220.283 295.994 220.392C296.055 220.5 296.142 220.591 296.248 220.657C296.354 220.722 296.475 220.759 296.599 220.765C297.246 220.765 298.003 220.461 298.416 219.205C298.416 219.205 298.596 221.67 300.117 220.165C300.117 220.165 301.045 222.552 302.495 220.672C302.495 220.672 305.857 221.171 306.395 218.745C306.934 216.319 307.729 212.045 307.729 212.045L309.866 207.03L304.391 205.641Z" fill="#858585" stroke="#263238" stroke-linecap="round" stroke-linejoin="round"/>
<path d="M298.385 218.246L298.915 214.635" stroke="#263238" stroke-width="0.75" stroke-linecap="round" stroke-linejoin="round"/>
<path d="M299.22 218.48C299.22 218.48 299.586 219.673 300.413 219.478C301.24 219.283 302.418 220.204 304.992 219.12" stroke="#263238" stroke-width="0.75" stroke-linecap="round" stroke-linejoin="round"/>
<path d="M306.746 147.009C306.746 147.009 318.446 179.519 318.228 184.269C318.01 189.019 309.687 209.682 309.687 209.682L303.26 207.638L307.55 183.403L303.704 166.563C303.704 166.563 302.831 154.216 306.746 147.009Z" fill="white" stroke="#263238" stroke-linecap="round" stroke-linejoin="round"/>
<path d="M308.993 182.865C309.424 182.535 309.924 182.305 310.456 182.193C310.988 182.081 311.538 182.09 312.066 182.218" stroke="#263238" stroke-width="0.75" stroke-linecap="round" stroke-linejoin="round"/>
<path d="M301.388 208.153C301.155 207.844 300.981 207.495 300.873 207.123C300.423 207.114 299.987 207.277 299.652 207.577C299.317 207.877 299.108 208.293 299.068 208.741C299.027 209.189 299.158 209.636 299.434 209.991C299.709 210.347 300.109 210.584 300.553 210.656C301.02 210.733 301.498 210.622 301.882 210.347C302.267 210.072 302.527 209.656 302.605 209.19C302.103 208.977 301.678 208.615 301.388 208.153V208.153Z" fill="white"/>
<path d="M73.1132 139.536L74.5328 146.533L58.7612 147.196L61.499 127.805L72.1226 129.037L73.1132 139.536Z" fill="white"/>
<path d="M80.18 128.92L66.9902 132.82C67.1548 134.332 67.4684 135.824 67.9262 137.274C68.7062 139.521 73.4564 143.514 76.5062 143.467C79.556 143.421 79.8992 133.702 79.8992 133.702L81.74 132.68C81.8454 132.62 81.9369 132.538 82.0084 132.44C82.0799 132.342 82.1299 132.23 82.1549 132.112C82.18 131.993 82.1796 131.87 82.1538 131.752C82.128 131.633 82.0774 131.522 82.0052 131.424L80.18 128.92Z" fill="#263238" stroke="#263238" stroke-width="0.75" stroke-linecap="round" stroke-linejoin="round"/>
<path d="M73.1132 139.536L74.5328 146.533L58.7612 147.196L61.499 127.805L72.1226 129.037L73.1132 139.536Z" stroke="#263238" stroke-linecap="round" stroke-linejoin="round"/>
<path d="M73.8387 114.888C73.8387 114.888 77.6685 115.668 77.2785 111.511C76.8885 107.353 69.7515 109.896 66.0309 110.364C62.3103 110.832 50.2983 115.317 54.5493 122.4C54.5493 122.4 52.0455 126.393 61.0623 133.093C61.0623 133.093 65.3445 131.081 67.6923 134.022L69.5253 130.449L74.2053 122.228L73.8387 114.888Z" fill="#263238" stroke="#263238" stroke-linecap="round" stroke-linejoin="round"/>
<path d="M73.5576 114.264C73.5576 114.264 77.2236 116.308 79.3296 113.749C79.3296 113.749 79.5636 119.209 73.5576 114.264Z" fill="#263238" stroke="#263238" stroke-linecap="round" stroke-linejoin="round"/>
<path d="M73.9397 113.695C73.9397 113.695 79.3997 119.443 79.2125 123.382V126.978L82.0985 130.223C82.1792 130.306 82.2403 130.406 82.2776 130.516C82.3148 130.625 82.3271 130.742 82.3137 130.857C82.3002 130.972 82.2613 131.083 82.1998 131.181C82.1383 131.279 82.0558 131.362 81.9581 131.424L80.2811 132.586C80.2811 132.586 80.7725 141.79 77.8865 142.118C75.0005 142.446 70.1957 138.998 69.2363 136.97C68.5137 135.109 67.9908 133.177 67.6763 131.206C66.8363 130.978 66.0836 130.505 65.5151 129.846C64.9465 129.187 64.5882 128.373 64.4861 127.509C64.1507 124.482 67.2005 124.568 67.9883 126.549L68.6279 128.164L70.6091 128.094C70.6091 128.094 69.4781 125.239 70.1489 124.396C70.8197 123.554 73.4561 121.503 72.2471 119.545C71.0381 117.587 71.4437 114.256 73.9397 113.695Z" fill="white" stroke="#263238" stroke-linecap="round" stroke-linejoin="round"/>
<path d="M77.0601 134.388C77.2872 134.791 77.6353 135.113 78.0553 135.308C78.4752 135.502 78.9456 135.56 79.4001 135.472" stroke="#263238" stroke-width="0.75" stroke-linecap="round" stroke-linejoin="round"/>
<path d="M75.6245 123.406C75.6245 123.406 76.8647 121.682 78.0425 123.258" stroke="#263238" stroke-linecap="round" stroke-linejoin="round"/>
<path d="M77.5826 127.002C77.5826 127.54 77.372 127.984 77.0834 127.992C76.7948 128 76.5452 127.571 76.5296 127.033C76.514 126.495 76.7402 126.05 77.0288 126.042C77.3174 126.034 77.567 126.44 77.5826 127.002Z" fill="#263238"/>
<path d="M52.5676 299.787L50.29 319.389L57.0682 320.434L60.8044 301.059L52.5676 299.787Z" fill="white" stroke="#263238" stroke-linecap="round" stroke-linejoin="round"/>
<path d="M49.3774 213.176C49.3774 213.176 49.6504 224.533 53.6596 232.52L54.5722 262.659L49.9468 311.222L60.235 312.205L69.595 261.411L72.715 215.391L49.3774 213.176Z" fill="white" stroke="#263238" stroke-linecap="round" stroke-linejoin="round"/>
<path opacity="0.2" d="M71.2643 237.52L70.4063 232.114L66.5063 215.103L65.7887 214.736L49.4087 213.176C49.4087 213.176 49.4087 215.04 49.7753 217.794L57.8639 222.38C58.0547 225.26 58.7051 228.091 59.7905 230.765C59.8877 230.999 59.9232 231.253 59.8936 231.504C59.8639 231.755 59.7702 231.995 59.6214 232.199C59.4725 232.404 59.2736 232.566 59.0436 232.672C58.8137 232.777 58.5606 232.822 58.3085 232.801C57.4739 232.738 56.7485 232.801 56.7485 233.347C56.7485 234.61 62.8481 238.69 62.8481 238.69C62.8481 238.69 69.0023 258.58 68.7839 265.927L69.6185 261.403L71.2643 237.52Z" fill="black"/>
<path d="M73.2534 301.074L73.9944 320.793H80.8506L81.5838 301.074H73.2534Z" fill="white" stroke="#263238" stroke-linecap="round" stroke-linejoin="round"/>
<path d="M91.7707 323.569C89.5074 322.88 87.3054 322.003 85.1875 320.949C84.1735 320.317 82.7539 318.25 81.7087 317.665C81.4894 317.57 81.2532 317.522 81.0145 317.522C80.7758 317.522 80.5395 317.57 80.3203 317.665C79.8211 318.071 79.7977 320.184 79.7977 320.184C79.7977 320.184 78.9163 318.032 78.2767 317.665C77.3875 317.166 74.9695 317.018 74.1817 317.665C72.8713 318.734 72.3955 322.446 72.1381 324.115C72.0757 324.482 72.1381 326.51 72.1381 326.51H93.1981V325.582C93.1997 325.139 93.0629 324.708 92.807 324.347C92.551 323.986 92.1887 323.714 91.7707 323.569V323.569Z" fill="#263238" stroke="#263238" stroke-linecap="round" stroke-linejoin="round"/>
<path d="M87.5978 214.112L85.913 259.672L83.0972 311.69H72.38C72.38 311.69 70.1336 271.762 70.6952 260.21L65.0714 233.495C65.0714 233.495 59.1668 225.617 60.5708 216.062L87.5978 214.112Z" fill="white" stroke="#263238" stroke-linecap="round" stroke-linejoin="round"/>
<path d="M71.4282 307.821L71.7792 314.077H83.5182L84.4308 307.821H71.4282Z" fill="white" stroke="#263238" stroke-linecap="round" stroke-linejoin="round"/>
<path d="M49.089 307.283L48.8472 313.539L60.5316 314.654L62.037 308.515L49.089 307.283Z" fill="white" stroke="#263238" stroke-linecap="round" stroke-linejoin="round"/>
<path d="M105.366 184.121L89.1499 173.809L106.24 156.72L122.464 167.031L105.366 184.121Z" fill="white" stroke="#263238" stroke-linecap="round" stroke-linejoin="round"/>
<path d="M106.294 180.595L93.2524 172.304L106.996 158.56L120.038 166.852L106.294 180.595Z" fill="white" stroke="#263238" stroke-width="0.75" stroke-linecap="round" stroke-linejoin="round"/>
<path d="M107.246 166.36L109.523 164.083L106.598 162.226L104.321 164.496L107.246 166.36Z" stroke="#263238" stroke-width="0.75" stroke-linecap="round" stroke-linejoin="round"/>
<path d="M103.713 169.902L105.99 167.624L103.057 165.76L100.788 168.037L103.713 169.902Z" stroke="#263238" stroke-width="0.75" stroke-linecap="round" stroke-linejoin="round"/>
<path d="M100.054 173.56L102.324 171.282L99.3992 169.418L97.1216 171.696L100.054 173.56Z" stroke="#263238" stroke-width="0.75" stroke-linecap="round" stroke-linejoin="round"/>
<path d="M112.823 159.379L110.67 161.54C110.568 161.642 110.491 161.765 110.443 161.901C110.395 162.036 110.378 162.181 110.394 162.324C110.41 162.467 110.457 162.605 110.534 162.727C110.61 162.849 110.712 162.953 110.834 163.03L113.954 165.034C114.298 165.254 114.706 165.349 115.112 165.305C115.517 165.261 115.896 165.081 116.185 164.793L118.174 162.796L112.823 159.379Z" fill="#858585" stroke="#263238" stroke-linecap="round" stroke-linejoin="round"/>
<path d="M55.1187 146.065L57.9345 139.879C57.9345 139.879 74.2442 138.054 78.5966 151.689L55.1187 146.065Z" fill="#858585" stroke="#263238" stroke-linecap="round" stroke-linejoin="round"/>
<path d="M45.8599 151.338C45.8599 151.338 41.8351 182.171 42.9037 193.099C43.7461 201.741 49.4401 209.058 49.4401 209.058L57.8797 205.75L53.5897 193.099C53.5897 193.099 54.9235 170.323 56.1871 165.019L45.8599 151.338Z" fill="#858585" stroke="#263238" stroke-linecap="round" stroke-linejoin="round"/>
<path d="M46.9985 207.544L49.3775 210.391L59.1275 206.593L57.8639 202.794L46.9985 207.544Z" fill="#858585" stroke="#263238" stroke-linecap="round" stroke-linejoin="round"/>
<path d="M45.8596 151.338C45.8596 151.338 44.5882 169.051 48.1996 181.5C51.811 193.949 48.1996 214.393 48.1996 214.393C48.1996 214.393 64.8214 225.149 90.3196 216.92C90.3196 216.92 87.1606 156.392 82.9408 153.022C78.721 149.653 54.9076 136.791 45.8596 151.338Z" fill="#858585" stroke="#263238" stroke-linecap="round" stroke-linejoin="round"/>
<path opacity="0.2" d="M90.3201 216.92C90.3201 216.92 89.2359 196.172 87.4965 178.294C83.8071 169.34 77.7777 157.414 77.4579 174.16C76.9899 198.379 91.8957 196.952 80.0865 201.172C77.4459 202.172 74.6173 202.577 71.8021 202.359C68.987 202.14 66.2547 201.304 63.8001 199.908C63.6038 199.808 63.379 199.777 63.163 199.822C62.9471 199.867 62.7529 199.984 62.6127 200.154C62.4725 200.325 62.3947 200.538 62.3922 200.758C62.3897 200.979 62.4626 201.193 62.5989 201.367C65.5629 205.134 70.0635 207.482 73.5189 208.831C73.8309 208.951 74.0947 209.17 74.2692 209.455C74.4436 209.74 74.5189 210.074 74.4833 210.406C74.4476 210.738 74.3031 211.049 74.0722 211.291C73.8414 211.532 73.5371 211.69 73.2069 211.741C62.0841 213.387 53.3637 207.474 49.3623 204.034C48.8943 209.994 48.1221 214.393 48.1221 214.393C48.1221 214.393 64.8219 225.149 90.3201 216.92Z" fill="black"/>
<path d="M82.9566 153.03C84.4772 153.728 85.7966 154.799 86.7921 156.144C87.7876 157.488 88.427 159.063 88.6506 160.721C89.493 166.524 94.8906 184.347 94.8906 184.347L96.6846 183.185C98.1824 183.858 99.4162 185.006 100.195 186.452C100.973 187.897 101.253 189.559 100.99 191.18C100.99 191.18 96.6066 199.76 91.8174 198.145C86.8956 196.476 84.1422 192.451 81.6774 185.868C80.3748 182.358 76.6152 171.781 76.6152 171.781" fill="#858585"/>
<path d="M82.9566 153.03C84.4772 153.728 85.7966 154.799 86.7921 156.144C87.7876 157.488 88.427 159.063 88.6506 160.721C89.493 166.524 94.8906 184.347 94.8906 184.347L96.6846 183.185C98.1824 183.858 99.4162 185.006 100.195 186.452C100.973 187.897 101.253 189.559 100.99 191.18C100.99 191.18 96.6066 199.76 91.8174 198.145C86.8956 196.476 84.1422 192.451 81.6774 185.868C80.3748 182.358 76.6152 171.781 76.6152 171.781" stroke="#263238" stroke-linecap="round" stroke-linejoin="round"/>
<path d="M97.0434 189.511C97.0716 189.969 97.0506 190.43 96.981 190.884" stroke="#263238" stroke-width="0.75" stroke-linecap="round" stroke-linejoin="round"/>
<path d="M93.8223 193.099C93.8223 193.099 95.2965 190.759 95.0859 185.712C95.7946 186.249 96.3357 186.977 96.6459 187.81" stroke="#263238" stroke-width="0.75" stroke-linecap="round" stroke-linejoin="round"/>
<path d="M97.8623 182.694L103.486 178.684C103.767 177.438 104.379 176.29 105.258 175.362C106.136 174.434 107.249 173.76 108.478 173.412C108.478 173.412 111.076 169.122 112.55 169.621C114.024 170.12 110.795 171.867 110.514 174.114L111.707 175.713C111.707 175.713 115.607 175.026 116.559 173.763C116.559 173.763 116.348 176.438 114.804 176.883C114.804 176.883 114.804 178.918 113.751 178.848L106.013 181.032L101.513 189.433L97.8623 182.694Z" fill="white" stroke="#263238" stroke-linecap="round" stroke-linejoin="round"/>
<path d="M74.8369 202.194C75.7261 202.112 76.6076 201.96 77.4733 201.741" stroke="#263238" stroke-width="0.75" stroke-linecap="round" stroke-linejoin="round"/>
<path d="M52.7314 189.409C52.7314 189.409 61.0228 202.092 73.0114 202.264" stroke="#263238" stroke-width="0.75" stroke-linecap="round" stroke-linejoin="round"/>
<path d="M95.4365 182.834C95.4365 182.834 101.302 187.264 100.741 192.607L102.854 188.559C102.854 188.559 102.784 185.151 97.9325 181.539L95.4365 182.834Z" fill="#858585" stroke="#263238" stroke-linecap="round" stroke-linejoin="round"/>
<path d="M72.1381 326.51H93.1981V325.582C93.198 325.354 93.1611 325.127 93.0889 324.911H72.1069C72.1069 325.621 72.1381 326.51 72.1381 326.51Z" fill="white" stroke="#263238" stroke-width="0.75" stroke-linecap="round" stroke-linejoin="round"/>
<path d="M67.6999 323.569C65.4366 322.88 63.2346 322.003 61.1167 320.949C60.1027 320.317 58.6831 318.25 57.6457 317.665C57.4251 317.57 57.1876 317.521 56.9476 317.521C56.7076 317.521 56.4701 317.57 56.2495 317.665C55.7503 318.071 55.7269 320.184 55.7269 320.184C55.7269 320.184 54.8533 318.032 54.2059 317.665C53.3167 317.166 50.8987 317.018 50.1109 317.665C48.8005 318.734 48.3247 322.446 48.0673 324.115C48.0049 324.482 48.0673 326.51 48.0673 326.51H69.1273V325.582C69.1289 325.139 68.9921 324.708 68.7362 324.347C68.4802 323.986 68.1179 323.714 67.6999 323.569V323.569Z" fill="#263238" stroke="#263238" stroke-linecap="round" stroke-linejoin="round"/>
<path d="M48.0517 326.51H69.1117V325.582C69.1116 325.354 69.0747 325.127 69.0025 324.911H48.0205C48.0205 325.621 48.0517 326.51 48.0517 326.51Z" fill="white" stroke="#263238" stroke-width="0.75" stroke-linecap="round" stroke-linejoin="round"/>
<path d="M79.119 260.514C79.119 260.514 76.8804 264.375 73.2534 262.901" stroke="#263238" stroke-width="0.75" stroke-linecap="round" stroke-linejoin="round"/>
<path d="M63.5112 261.871C63.5112 261.871 59.4942 265.303 56.1714 262.901" stroke="#263238" stroke-width="0.75" stroke-linecap="round" stroke-linejoin="round"/>
<path d="M105.428 161.953L105.99 164.746H110.966L106.918 163.802L107.113 161.899L105.428 161.953Z" fill="white"/>
</svg>
